# xmcd CD database file
#
# Track frame offsets:
#	150
#	3580
#	19525
#	35938
#	50938
#	64268
#	79616
#	87078
#	106204
#	121602
#	137632
#	156121
#	172905
#	187334
#	197909
#
# Disc length: 2686 seconds
#
# Revision: 2
# Processed by: cddbd v1.5.1PL0 Copyright (c) Steve Scherf et al.
# Submitted via: CDex 1.51
#
DISCID=c80a7c0f
DTITLE=Ra.D - My name is Ra.D
DYEAR=2002
DGENRE=R&B
TTITLE0=Intro
TTITLE1=Cominto your mind
TTITLE2=내게...
TTITLE3=내가있어
TTITLE4=요술공주 세리
TTITLE5=Media Doll
TTITLE6=NeverForget2002(skit)
TTITLE7=Can I get a little bit
TTITLE8=바램
TTITLE9=소원(So One)
TTITLE10=To Homies
TTITLE11=홀로서기
TTITLE12=넌 내게 했던 얘기를
TTITLE13=White Christmas(Bonus Track)
TTITLE14=Satisfy?(outro)
EXTD=YEAR: 2002
EXTT0=
EXTT1=
EXTT2=
EXTT3=
EXTT4=
EXTT5=
EXTT6=
EXTT7=
EXTT8=
EXTT9=
EXTT10=
EXTT11=
EXTT12=
EXTT13=
EXTT14=
PLAYORDER=
